# Blender v2.93.4 OBJ File: 'paper-plane.blend'
# www.blender.org
mtllib paper-plane.mtl
o Plane
v -5.559669 2.506333 10.965058
v 0.160658 0.022767 -11.317458
v -0.087014 2.970547 10.963647
v -5.576361 2.706954 -2.555768
v -0.071684 2.731223 -8.245205
v 5.649867 2.523034 10.991229
v 0.206251 -0.130086 -2.825442
v 0.167188 -0.026150 11.001183
v 0.135969 0.011445 -11.323977
v 0.134350 2.896553 11.005640
v 0.160838 -0.038635 -8.316803
v 5.616286 2.548705 -2.525776
v 0.086626 2.933035 -8.204613
v 0.170455 3.116641 -2.708252
v -0.096299 3.112432 -2.754270
vt 0.676923 0.000000
vt 1.000000 0.000000
vt 1.000000 0.614412
vt 0.676923 0.873197
vt 0.500000 0.000000
vt 0.500000 1.000000
vt 1.000000 0.864349
vt 0.676923 0.000000
vt 0.676923 0.873197
vt 1.000000 0.614412
vt 1.000000 0.000000
vt 0.500000 1.000000
vt 1.000000 0.863430
vt 0.676923 1.000000
vt 1.000000 1.000000
vn 0.0451 -0.9990 0.0012
vn -0.9964 -0.0851 0.0002
vn -0.0761 0.9947 -0.0694
vn -0.0676 -0.9977 -0.0017
vn 0.9999 0.0151 -0.0019
vn 0.1048 0.9939 -0.0348
vn -0.9997 -0.0253 0.0078
vn -0.9998 -0.0181 0.0119
usemtl None
s off
f 3/1/1 1/2/1 4/3/1 5/4/1
f 8/5/2 3/1/2 5/4/2 2/6/2
f 5/4/3 4/3/3 15/7/3
f 10/8/4 13/9/4 12/10/4 6/11/4
f 8/5/5 9/12/5 13/9/5 10/8/5
f 13/9/6 14/13/6 12/10/6
f 9/12/7 11/14/7 13/9/7
f 14/13/8 13/9/8 11/14/8 7/15/8
